<?xml version="1.0" encoding="UTF-8" standalone="no"?>
<!-- Created with Inkscape (http://www.inkscape.org/) -->

<svg
   xmlns:dc="http://purl.org/dc/elements/1.1/"
   xmlns:cc="http://creativecommons.org/ns#"
   xmlns:rdf="http://www.w3.org/1999/02/22-rdf-syntax-ns#"
   xmlns:svg="http://www.w3.org/2000/svg"
   xmlns="http://www.w3.org/2000/svg"
   xmlns:sodipodi="http://sodipodi.sourceforge.net/DTD/sodipodi-0.dtd"
   xmlns:inkscape="http://www.inkscape.org/namespaces/inkscape"
   width="119.99991mm"
   height="119.99991mm"
   viewBox="0 0 119.99991 119.99991"
   version="1.1"
   id="svg8"
   inkscape:version="0.92.5 (2060ec1f9f, 2020-04-08)"
   sodipodi:docname="icon.svg">
  <defs
     id="defs2">
    <filter
       inkscape:collect="always"
       style="color-interpolation-filters:sRGB"
       id="filter1749"
       x="-0.26866668"
       width="1.5373333"
       y="-0.19802587"
       height="1.3960516">
      <feGaussianBlur
         inkscape:collect="always"
         stdDeviation="4.5568143"
         id="feGaussianBlur1751" />
    </filter>
  </defs>
  <sodipodi:namedview
     id="base"
     pagecolor="#ffffff"
     bordercolor="#666666"
     borderopacity="1.0"
     inkscape:pageopacity="0.0"
     inkscape:pageshadow="2"
     inkscape:zoom="0.7"
     inkscape:cx="-132.53672"
     inkscape:cy="590.19545"
     inkscape:document-units="mm"
     inkscape:current-layer="layer1"
     showgrid="false"
     fit-margin-top="0"
     fit-margin-left="0"
     fit-margin-right="0"
     fit-margin-bottom="0"
     inkscape:window-width="3696"
     inkscape:window-height="2032"
     inkscape:window-x="144"
     inkscape:window-y="54"
     inkscape:window-maximized="1" />
  <metadata
     id="metadata5">
    <rdf:RDF>
      <cc:Work
         rdf:about="">
        <dc:format>image/svg+xml</dc:format>
        <dc:type
           rdf:resource="http://purl.org/dc/dcmitype/StillImage" />
        <dc:title></dc:title>
      </cc:Work>
    </rdf:RDF>
  </metadata>
  <g
     inkscape:label="Layer 1"
     inkscape:groupmode="layer"
     id="layer1"
     transform="translate(-44.999835,-88.500023)">
    <path
       style="opacity:1;fill:#cccccc;fill-opacity:1;stroke:none;stroke-width:0.15152189;stroke-linecap:butt;stroke-linejoin:round;stroke-miterlimit:4;stroke-dasharray:none;stroke-opacity:1"
       d="m 47.57384,101.893 v 94.02766 H 161.5643 V 101.893 Z"
       id="rect951"
       inkscape:connector-curvature="0" />
    <path
       inkscape:connector-curvature="0"
       id="path923"
       d="M 160.58975,169.52224 49.410324,183.11592 v 3.92461 c 0,5.09001 4.958494,9.18764 11.117831,9.18764 h 88.943775 c 6.15933,0 11.11782,-4.09763 11.11782,-9.18764 z"
       style="opacity:1;fill:#cccccc;fill-opacity:1;stroke:none;stroke-width:0.14128402;stroke-linecap:butt;stroke-linejoin:round;stroke-miterlimit:4;stroke-dasharray:none;stroke-opacity:1" />
    <path
       style="opacity:1;fill:#b3b3b3;fill-opacity:1;stroke:none;stroke-width:0.40747234;stroke-linecap:butt;stroke-linejoin:round;stroke-miterlimit:4;stroke-dasharray:none;stroke-opacity:1"
       d="m 258.06445,506.09375 -87.98633,119.58398 v 26.06836 l 429.5293,-17.07812 -94.875,-125.50586 -53.82617,88.17383 -35.4082,-50.74805 -15.88867,21.62109 -15.19141,-30.98437 -36.03711,70.36523 -50.90625,-95.23242 -18.37891,25.54102 z"
       transform="scale(0.26458333)"
       id="path978"
       inkscape:connector-curvature="0" />
    <path
       style="opacity:1;fill:#999999;fill-opacity:1;stroke:none;stroke-width:0.40747234;stroke-linecap:butt;stroke-linejoin:round;stroke-miterlimit:4;stroke-dasharray:none;stroke-opacity:1"
       d="m 557.48828,464.91797 -57.32226,94.5332 -21.0254,-32.28711 -61.6875,92.70899 -15.89648,-14.5625 -17.3457,21.17383 -58.55078,-70.4375 -40.07422,43.92968 -83.29688,-116.14258 -32.21094,45.61133 v 124.04492 l 453.54297,-11.21484 v -52.01172 z"
       transform="scale(0.26458333)"
       id="path976"
       inkscape:connector-curvature="0" />
    <path
       style="opacity:1;fill:#808080;fill-opacity:1;stroke:none;stroke-width:0.62899894;stroke-linecap:butt;stroke-linejoin:round;stroke-miterlimit:4;stroke-dasharray:none;stroke-opacity:1"
       d="m 555.61719,596.01367 a 105.05471,52.563897 2.9959369 0 0 -89.2168,29.53711 88.433541,40.468312 2.3705823 0 0 -43.79687,-5.17578 88.433541,40.468312 2.3705823 0 0 -38.39258,4.2207 97.686599,49.219865 3.053114 0 0 -82.95703,-21.16797 97.686599,49.219865 3.053114 0 0 -48.68164,7.02149 91.844935,51.602559 4.1584699 0 0 -47.85938,-7.375 91.844935,51.602559 4.1584699 0 0 -17.96484,1.03906 v 99.10938 a 91.844935,51.602559 4.1584699 0 0 25.07226,3.33984 l 54.59961,-7.16016 a 91.844935,51.602559 4.1584699 0 0 6.09375,-2.34375 97.686599,49.219865 3.053114 0 0 4.46094,0.96094 L 606.95312,654.75 v -52.16797 a 105.05471,52.563897 2.9959369 0 0 -51.33593,-6.56836 z"
       transform="scale(0.26458333)"
       id="path929"
       inkscape:connector-curvature="0" />
    <path
       style="opacity:1;fill:#3a3a3a;fill-opacity:1;stroke:none;stroke-width:0.56007016;stroke-linecap:butt;stroke-linejoin:round;stroke-miterlimit:4;stroke-dasharray:none;stroke-opacity:1"
       d="m 606.95312,640.71484 -420.20507,56.51954 v 16.3164 c 0,9.59258 3.85398,18.33479 10.23242,25.0293 h 37.88281 l 49.59375,-6.66992 9.11133,6.66992 h 303.14258 c 6.38073,-6.69542 10.24218,-15.4345 10.24218,-25.0293 z m -21.42773,50.69922 11.75391,8.60547 -98.30664,13.22266 -11.75586,-8.60547 z m -150.5332,20.24805 11.7539,8.60547 -98.30664,13.2207 -11.75586,-8.60351 z"
       transform="scale(0.26458333)"
       id="path931"
       inkscape:connector-curvature="0" />
    <path
       style="opacity:1;fill:#000000;fill-opacity:1;stroke:none;stroke-width:2.47166681;stroke-linecap:butt;stroke-linejoin:round;stroke-miterlimit:4;stroke-dasharray:none;stroke-opacity:1"
       d="m 181.41797,334.48828 c -6.28159,0 -11.33985,5.05631 -11.33985,11.33789 v 430.86719 c 0,6.28158 5.05826,11.33789 11.33985,11.33789 H 612.2832 c 6.28159,0 11.33789,-5.05631 11.33789,-11.33789 V 345.82617 c 0,-6.28158 -5.0563,-11.33789 -11.33789,-11.33789 z m 16.9043,9.76367 h 11.33984 c 6.28158,0 11.33789,5.05632 11.33789,11.33789 v 11.33985 c 0,6.28158 -5.05631,11.33789 -11.33789,11.33789 h -11.33984 c -6.28157,0 -11.33789,-5.05631 -11.33789,-11.33789 v -11.33985 c 0,-6.28157 5.05632,-11.33789 11.33789,-11.33789 z m 96.42968,0 h 11.33789 c 6.28158,0 11.33789,5.05632 11.33789,11.33789 v 11.33985 c 0,6.28158 -5.05632,11.33789 -11.33789,11.33789 h -11.33789 c -6.28158,0 -11.33984,-5.05631 -11.33984,-11.33789 v -11.33985 c 0,-6.28157 5.05826,-11.33789 11.33984,-11.33789 z m 96.42774,0 h 11.33984 c 6.28158,0 11.33789,5.05632 11.33789,11.33789 v 11.33985 c 0,6.28158 -5.05631,11.33789 -11.33789,11.33789 h -11.33984 c -6.28158,0 -11.33789,-5.05631 -11.33789,-11.33789 v -11.33985 c 0,-6.28157 5.05631,-11.33789 11.33789,-11.33789 z m 96.42969,0 h 11.33789 c 6.28157,0 11.33789,5.05632 11.33789,11.33789 v 11.33985 c 0,6.28158 -5.05632,11.33789 -11.33789,11.33789 h -11.33789 c -6.28158,0 -11.33985,-5.05631 -11.33985,-11.33789 v -11.33985 c 0,-6.28157 5.05827,-11.33789 11.33985,-11.33789 z m 96.42773,0 H 595.375 c 6.28157,0 11.33984,5.05632 11.33984,11.33789 v 11.33985 c 0,6.28158 -5.05827,11.33789 -11.33984,11.33789 h -11.33789 c -6.28154,0 -11.33789,-5.05631 -11.33789,-11.33789 v -11.33985 c 0,-6.28157 5.05635,-11.33789 11.33789,-11.33789 z M 242.23242,389.46289 H 551.4668 c 19.0351,0 34.35937,15.32431 34.35937,34.35938 v 274.875 c 0,19.03509 -15.32427,34.35937 -34.35937,34.35937 H 242.23242 c -19.03507,0 -34.35937,-15.32428 -34.35937,-34.35937 v -274.875 c 0,-19.03507 15.3243,-34.35938 34.35937,-34.35938 z m -43.91015,354.78906 h 11.33984 c 6.28158,0 11.33789,5.05632 11.33789,11.33789 v 11.33985 c 0,6.28157 -5.05631,11.33789 -11.33789,11.33789 h -11.33984 c -6.28157,0 -11.33789,-5.05632 -11.33789,-11.33789 v -11.33985 c 0,-6.28157 5.05632,-11.33789 11.33789,-11.33789 z m 96.42968,0 h 11.33789 c 6.28158,0 11.33789,5.05632 11.33789,11.33789 v 11.33985 c 0,6.28157 -5.05632,11.33789 -11.33789,11.33789 h -11.33789 c -6.28158,0 -11.33984,-5.05632 -11.33984,-11.33789 v -11.33985 c 0,-6.28157 5.05826,-11.33789 11.33984,-11.33789 z m 96.42774,0 h 11.33984 c 6.28158,0 11.33789,5.05632 11.33789,11.33789 v 11.33985 c 0,6.28157 -5.05631,11.33789 -11.33789,11.33789 h -11.33984 c -6.28158,0 -11.33789,-5.05632 -11.33789,-11.33789 v -11.33985 c 0,-6.28157 5.05631,-11.33789 11.33789,-11.33789 z m 96.42969,0 h 11.33789 c 6.28157,0 11.33789,5.05632 11.33789,11.33789 v 11.33985 c 0,6.28157 -5.05632,11.33789 -11.33789,11.33789 h -11.33789 c -6.28158,0 -11.33985,-5.05632 -11.33985,-11.33789 v -11.33985 c 0,-6.28157 5.05827,-11.33789 11.33985,-11.33789 z m 96.42773,0 H 595.375 c 6.28157,0 11.33984,5.05632 11.33984,11.33789 v 11.33985 c 0,6.28157 -5.05827,11.33789 -11.33984,11.33789 h -11.33789 c -6.2815,0 -11.33789,-5.05632 -11.33789,-11.33789 v -11.33985 c 0,-6.28157 5.05639,-11.33789 11.33789,-11.33789 z"
       transform="scale(0.26458333)"
       id="path1773"
       inkscape:connector-curvature="0" />
    <path
       sodipodi:nodetypes="cccc"
       inkscape:connector-curvature="0"
       id="path1055"
       d="m 86.763808,176.11345 v -55.2269 L 127.46984,148.5 Z"
       style="opacity:0.49000005;fill:#ffd42a;fill-opacity:1;stroke:#000000;stroke-width:7.69578028;stroke-linecap:butt;stroke-linejoin:round;stroke-miterlimit:4;stroke-dasharray:none;stroke-opacity:1;filter:url(#filter1749)"
       transform="matrix(0.72960921,0,0,0.72960921,28.963402,40.153032)" />
    <path
       style="opacity:1;fill:#ffd42a;fill-opacity:1;stroke:#ffd42a;stroke-width:5.69849062;stroke-linecap:butt;stroke-linejoin:round;stroke-miterlimit:4;stroke-dasharray:none;stroke-opacity:1"
       d="M 92.045997,168.94692 V 128.05308 L 122.18757,148.5 Z"
       id="rect1052"
       inkscape:connector-curvature="0"
       sodipodi:nodetypes="cccc" />
  </g>
</svg>
